<svg width="48" height="48" viewBox="0 0 48 48" fill="none" xmlns="http://www.w3.org/2000/svg">
<path fill-rule="evenodd" clip-rule="evenodd" d="M24 5C21.6478 4.99928 19.3573 5.75258 17.4647 7.14934C15.5721 8.5461 14.1771 10.5128 13.4844 12.7606C12.7917 15.0085 12.8378 17.4193 13.616 19.639C14.3942 21.8588 15.8634 23.7706 17.808 25.094C14.433 26.3319 11.5057 28.5514 9.40272 31.467C7.29979 34.3826 6.1175 37.8608 6.008 41.454C5.99607 41.8518 6.14265 42.2381 6.41552 42.5278C6.68839 42.8176 7.06518 42.9871 7.463 42.999C7.86082 43.0109 8.2471 42.8643 8.53684 42.5915C8.82658 42.3186 8.99607 41.9418 9.008 41.544C9.1271 37.6469 10.7589 33.9493 13.5577 31.2348C16.3564 28.5203 20.1021 27.0022 24.001 27.0022C27.8999 27.0022 31.6456 28.5203 34.4443 31.2348C37.2431 33.9493 38.8749 37.6469 38.994 41.544C38.9955 41.7437 39.0369 41.9411 39.1157 42.1246C39.1946 42.3081 39.3093 42.4741 39.4531 42.6127C39.5969 42.7513 39.7669 42.8597 39.9532 42.9317C40.1395 43.0037 40.3383 43.0378 40.538 43.0319C40.7376 43.0261 40.9341 42.9804 41.1158 42.8976C41.2976 42.8148 41.461 42.6965 41.5964 42.5498C41.7318 42.403 41.8366 42.2306 41.9045 42.0428C41.9725 41.855 42.0022 41.6555 41.992 41.456C41.8829 37.8625 40.7008 34.3838 38.5978 31.4678C36.4949 28.5519 33.5673 26.332 30.192 25.094C32.1366 23.7706 33.6058 21.8588 34.384 19.639C35.1622 17.4193 35.2083 15.0085 34.5156 12.7606C33.8229 10.5128 32.4279 8.5461 30.5353 7.14934C28.6427 5.75258 26.3522 4.99928 24 5ZM16 16C16 13.8783 16.8429 11.8434 18.3431 10.3431C19.8434 8.84285 21.8783 8 24 8C26.1217 8 28.1566 8.84285 29.6569 10.3431C31.1571 11.8434 32 13.8783 32 16C32 18.1217 31.1571 20.1566 29.6569 21.6569C28.1566 23.1571 26.1217 24 24 24C21.8783 24 19.8434 23.1571 18.3431 21.6569C16.8429 20.1566 16 18.1217 16 16Z" fill="black"/>
</svg>
