<svg width="48" height="48" viewBox="0 0 48 48" fill="none" xmlns="http://www.w3.org/2000/svg">
<path d="M9 9H45L40.5 28.5H13.5M40.5 34.5H15L7.5 3H3" stroke="black" stroke-width="2" stroke-linecap="round" stroke-linejoin="round"/>
<path d="M37.5 43.5C39.1569 43.5 40.5 42.1569 40.5 40.5C40.5 38.8431 39.1569 37.5 37.5 37.5C35.8431 37.5 34.5 38.8431 34.5 40.5C34.5 42.1569 35.8431 43.5 37.5 43.5Z" stroke="black" stroke-width="2" stroke-linecap="round" stroke-linejoin="round"/>
<path d="M18 43.5C19.6569 43.5 21 42.1569 21 40.5C21 38.8431 19.6569 37.5 18 37.5C16.3431 37.5 15 38.8431 15 40.5C15 42.1569 16.3431 43.5 18 43.5Z" stroke="black" stroke-width="2" stroke-linecap="round" stroke-linejoin="round"/>
</svg>
